# xmcd CD database file
#
# Track frame offsets:
#	150
#	53890
#	100160
#	152637
#	198961
#	252138
#
# Disc length: 4281 seconds
#
# Revision: 1
# Processed by: cddbd v1.5.2PL0 Copyright (c) Steve Scherf et al.
# Submitted via: CDex 1.70beta2
#
DISCID=4410b706
DTITLE=Lee Konitz, Brad Mehldau, Charlie Haden, Paul Motian - Live At Birdland
DYEAR=2011
DGENRE=Jazz
TTITLE0=Lover Man
TTITLE1=Lullaby Of Birdland
TTITLE2=Solar
TTITLE3=I Fall In Love Too Easily
TTITLE4=You Stepped Out Of A Dream
TTITLE5=Oleo
EXTD=YEAR: 2011
EXTT0=
EXTT1=
EXTT2=
EXTT3=
EXTT4=
EXTT5=
PLAYORDER=
